# MagicaVoxel @ Ephtracy

# group
o 

# material
mtllib firestation.mtl
usemtl palette

# normals
vn -1 0 0
vn 1 0 0
vn 0 0 1
vn 0 0 -1
vn 0 -1 0
vn 0 1 0

# texcoords
vt 0.146484 0.5
vt 0.208984 0.5
vt 0.916016 0.5
vt 0.994141 0.5

# verts
v -0.5 0 2
v -0.5 0 1.6
v -0.5 0 1.4
v -0.5 0 1.3
v -0.5 0.1 1.9
v -0.5 0.1 1.7
v -0.5 0.3 1.9
v -0.5 0.3 1.7
v -0.5 0.3 1.6
v -0.5 0.3 1.4
v -0.5 0.4 2
v -0.5 0.4 1.3
v -0.5 0.5 2
v -0.5 0.5 1.3
v -0.4 0.5 2
v -0.4 0.5 1.3
v -0.4 0.6 2
v -0.4 0.6 1.3
v -0.3 0.6 2
v -0.3 0.6 1.3
v -0.3 0.7 2
v -0.3 0.7 1.3
v 0.5 0.7 2
v 0.5 0.7 1.7
v 0.5 0.8 1.9
v 0.5 0.8 1.8
v 0.5 1 1.9
v 0.5 1 1.8
v 0.5 1.1 2
v 0.5 1.1 1.7
v 0.5 1.2 2
v 0.5 1.2 1.9
v 0.5 1.2 1.8
v 0.5 1.2 1.7
v 0.5 1.3 1.9
v 0.5 1.3 1.8
v 0.6 1.2 2
v 0.6 1.2 1.9
v 0.6 1.2 1.8
v 0.6 1.2 1.7
v 0.6 1.3 2
v 0.6 1.3 1.9
v 0.6 1.3 1.8
v 0.6 1.3 1.7
v 0.6 1.4 1.9
v 0.6 1.4 1.8
v 0.6 0.6 1.7
v 0.6 0.6 1.3
v 0.6 0.7 1.7
v 0.6 0.7 1.3
v 0.7 0.5 1.7
v 0.7 0.5 1.3
v 0.7 0.6 1.7
v 0.7 0.6 1.3
v 0.7 1.2 2
v 0.7 1.2 1.9
v 0.7 1.2 1.8
v 0.7 1.2 1.7
v 0.7 1.3 2
v 0.7 1.3 1.9
v 0.7 1.3 1.8
v 0.7 1.3 1.7
v 0.7 1.4 1.9
v 0.7 1.4 1.8
v 0.8 0 2
v 0.8 0 1.3
v 0.8 0.1 1.8
v 0.8 0.1 1.6
v 0.8 0.1 1.5
v 0.8 0.1 1.4
v 0.8 0.3 1.8
v 0.8 0.3 1.6
v 0.8 0.3 1.5
v 0.8 0.3 1.4
v 0.8 0.4 1.7
v 0.8 0.4 1.3
v 0.8 0.5 1.7
v 0.8 0.5 1.3
v 0.8 0.8 1.9
v 0.8 0.8 1.8
v 0.8 1 1.9
v 0.8 1 1.8
v 0.8 1.1 2
v 0.8 1.1 1.7
v 0.8 1.2 2
v 0.8 1.2 1.9
v 0.8 1.2 1.8
v 0.8 1.2 1.7
v 0.8 1.3 1.9
v 0.8 1.3 1.8
v -0.5 0 2
v -0.5 0.4 2
v -0.5 0.5 2
v -0.4 0.5 2
v -0.4 0.6 2
v -0.3 0.1 2
v -0.3 0.3 2
v -0.3 0.6 2
v -0.3 0.7 2
v -0.1 0.1 2
v -0.1 0.3 2
v 0.4 0.1 2
v 0.4 0.3 2
v 0.5 0.4 2
v 0.5 0.7 2
v 0.5 1.1 2
v 0.5 1.2 2
v 0.6 0.1 2
v 0.6 0.3 2
v 0.6 0.8 2
v 0.6 1 2
v 0.6 1.2 2
v 0.6 1.3 2
v 0.7 0.8 2
v 0.7 1 2
v 0.7 1.2 2
v 0.7 1.3 2
v 0.8 0 2
v 0.8 1.1 2
v 0.8 1.2 2
v 0.5 1.2 1.9
v 0.5 1.3 1.9
v 0.6 1.2 1.9
v 0.6 1.3 1.9
v 0.6 1.4 1.9
v 0.7 1.2 1.9
v 0.7 1.3 1.9
v 0.7 1.4 1.9
v 0.8 1.2 1.9
v 0.8 1.3 1.9
v 0.5 1.2 1.8
v 0.5 1.3 1.8
v 0.6 1.2 1.8
v 0.6 1.3 1.8
v 0.6 1.4 1.8
v 0.7 1.2 1.8
v 0.7 1.3 1.8
v 0.7 1.4 1.8
v 0.8 1.2 1.8
v 0.8 1.3 1.8
v 0.5 0.7 1.7
v 0.5 1.1 1.7
v 0.5 1.2 1.7
v 0.6 0.6 1.7
v 0.6 0.7 1.7
v 0.6 0.8 1.7
v 0.6 1 1.7
v 0.6 1.2 1.7
v 0.6 1.3 1.7
v 0.7 0.5 1.7
v 0.7 0.6 1.7
v 0.7 0.8 1.7
v 0.7 1 1.7
v 0.7 1.2 1.7
v 0.7 1.3 1.7
v 0.8 0.5 1.7
v 0.8 1.1 1.7
v 0.8 1.2 1.7
v -0.5 0 1.3
v -0.5 0.4 1.3
v -0.5 0.5 1.3
v -0.4 0.5 1.3
v -0.4 0.6 1.3
v -0.3 0.6 1.3
v -0.3 0.7 1.3
v -0.2 0 1.3
v -0.2 0.3 1.3
v 0.2 0 1.3
v 0.2 0.3 1.3
v 0.3 0 1.3
v 0.3 0.3 1.3
v 0.6 0.6 1.3
v 0.6 0.7 1.3
v 0.7 0 1.3
v 0.7 0.3 1.3
v 0.7 0.5 1.3
v 0.7 0.6 1.3
v 0.8 0 1.3
v 0.8 0.4 1.3
v 0.8 0.5 1.3
v -0.5 0 2
v 0.8 0 2
v -0.5 0 1.6
v -0.4 0 1.6
v -0.5 0 1.4
v -0.4 0 1.4
v -0.2 0 1.4
v 0.2 0 1.4
v 0.3 0 1.4
v 0.7 0 1.4
v -0.5 0 1.3
v -0.2 0 1.3
v 0.2 0 1.3
v 0.3 0 1.3
v 0.7 0 1.3
v 0.8 0 1.3
v -0.5 0.5 2
v -0.4 0.5 2
v 0.7 0.5 1.7
v 0.8 0.5 1.7
v -0.5 0.5 1.3
v -0.4 0.5 1.3
v 0.7 0.5 1.3
v 0.8 0.5 1.3
v -0.4 0.6 2
v -0.3 0.6 2
v 0.6 0.6 1.7
v 0.7 0.6 1.7
v -0.4 0.6 1.3
v -0.3 0.6 1.3
v 0.6 0.6 1.3
v 0.7 0.6 1.3
v -0.3 0.7 2
v 0.5 0.7 2
v -0.1 0.7 1.8
v 0 0.7 1.8
v 0.1 0.7 1.8
v 0.2 0.7 1.8
v 0 0.7 1.7
v 0.1 0.7 1.7
v 0.5 0.7 1.7
v 0.6 0.7 1.7
v 0 0.7 1.6
v 0.1 0.7 1.6
v -0.1 0.7 1.5
v 0 0.7 1.5
v 0.1 0.7 1.5
v 0.2 0.7 1.5
v -0.3 0.7 1.3
v 0.6 0.7 1.3
v 0.5 1.2 2
v 0.6 1.2 2
v 0.7 1.2 2
v 0.8 1.2 2
v 0.5 1.2 1.9
v 0.6 1.2 1.9
v 0.7 1.2 1.9
v 0.8 1.2 1.9
v 0.5 1.2 1.8
v 0.6 1.2 1.8
v 0.7 1.2 1.8
v 0.8 1.2 1.8
v 0.5 1.2 1.7
v 0.6 1.2 1.7
v 0.7 1.2 1.7
v 0.8 1.2 1.7
v 0.6 1.3 2
v 0.7 1.3 2
v 0.5 1.3 1.9
v 0.6 1.3 1.9
v 0.7 1.3 1.9
v 0.8 1.3 1.9
v 0.5 1.3 1.8
v 0.6 1.3 1.8
v 0.7 1.3 1.8
v 0.8 1.3 1.8
v 0.6 1.3 1.7
v 0.7 1.3 1.7
v 0.6 1.4 1.9
v 0.7 1.4 1.9
v 0.6 1.4 1.8
v 0.7 1.4 1.8

# faces
f 5/1/1 2/1/1 1/1/1
f 6/1/1 2/1/1 5/1/1
f 7/1/1 5/1/1 1/1/1
f 7/4/1 6/4/1 5/4/1
f 8/1/1 2/1/1 6/1/1
f 8/4/1 6/4/1 7/4/1
f 9/4/1 3/4/1 2/4/1
f 9/1/1 2/1/1 8/1/1
f 10/1/1 4/1/1 3/1/1
f 10/4/1 3/4/1 9/4/1
f 11/1/1 9/1/1 8/1/1
f 11/1/1 8/1/1 7/1/1
f 11/1/1 10/1/1 9/1/1
f 11/1/1 7/1/1 1/1/1
f 12/1/1 4/1/1 10/1/1
f 12/1/1 10/1/1 11/1/1
f 13/2/1 12/2/1 11/2/1
f 14/2/1 12/2/1 13/2/1
f 17/2/1 16/2/1 15/2/1
f 18/2/1 16/2/1 17/2/1
f 21/2/1 20/2/1 19/2/1
f 22/2/1 20/2/1 21/2/1
f 25/1/1 24/1/1 23/1/1
f 26/1/1 24/1/1 25/1/1
f 27/1/1 25/1/1 23/1/1
f 27/4/1 26/4/1 25/4/1
f 28/1/1 24/1/1 26/1/1
f 28/4/1 26/4/1 27/4/1
f 29/1/1 27/1/1 23/1/1
f 29/1/1 28/1/1 27/1/1
f 30/1/1 24/1/1 28/1/1
f 30/1/1 28/1/1 29/1/1
f 31/2/1 30/2/1 29/2/1
f 32/2/1 30/2/1 31/2/1
f 33/2/1 30/2/1 32/2/1
f 34/2/1 30/2/1 33/2/1
f 35/2/1 33/2/1 32/2/1
f 36/2/1 33/2/1 35/2/1
f 41/2/1 38/2/1 37/2/1
f 42/2/1 38/2/1 41/2/1
f 43/2/1 40/2/1 39/2/1
f 44/2/1 40/2/1 43/2/1
f 45/2/1 43/2/1 42/2/1
f 46/2/1 43/2/1 45/2/1
f 47/2/2 48/2/2 49/2/2
f 49/2/2 48/2/2 50/2/2
f 51/2/2 52/2/2 53/2/2
f 53/2/2 52/2/2 54/2/2
f 55/2/2 56/2/2 59/2/2
f 59/2/2 56/2/2 60/2/2
f 57/2/2 58/2/2 61/2/2
f 61/2/2 58/2/2 62/2/2
f 60/2/2 61/2/2 63/2/2
f 63/2/2 61/2/2 64/2/2
f 65/1/2 66/1/2 67/1/2
f 67/1/2 66/1/2 68/1/2
f 68/1/2 66/1/2 69/1/2
f 69/1/2 66/1/2 70/1/2
f 65/1/2 67/1/2 71/1/2
f 67/4/2 68/4/2 71/4/2
f 68/1/2 69/1/2 72/1/2
f 71/4/2 68/4/2 72/4/2
f 69/4/2 70/4/2 73/4/2
f 72/1/2 69/1/2 73/1/2
f 70/1/2 66/1/2 74/1/2
f 73/4/2 70/4/2 74/4/2
f 72/1/2 73/1/2 75/1/2
f 71/1/2 72/1/2 75/1/2
f 73/1/2 74/1/2 75/1/2
f 74/1/2 66/1/2 76/1/2
f 75/1/2 74/1/2 76/1/2
f 71/1/2 75/1/2 77/1/2
f 75/2/2 76/2/2 77/2/2
f 77/2/2 76/2/2 78/2/2
f 65/1/2 71/1/2 79/1/2
f 71/1/2 77/1/2 79/1/2
f 79/1/2 77/1/2 80/1/2
f 65/1/2 79/1/2 81/1/2
f 79/4/2 80/4/2 81/4/2
f 80/1/2 77/1/2 82/1/2
f 81/4/2 80/4/2 82/4/2
f 65/1/2 81/1/2 83/1/2
f 81/1/2 82/1/2 83/1/2
f 82/1/2 77/1/2 84/1/2
f 83/1/2 82/1/2 84/1/2
f 83/2/2 84/2/2 85/2/2
f 85/2/2 84/2/2 86/2/2
f 86/2/2 84/2/2 87/2/2
f 87/2/2 84/2/2 88/2/2
f 86/2/2 87/2/2 89/2/2
f 89/2/2 87/2/2 90/2/2
f 94/2/3 93/2/3 92/2/3
f 96/1/3 92/1/3 91/1/3
f 97/1/3 92/1/3 96/1/3
f 98/2/3 95/2/3 94/2/3
f 100/1/3 96/1/3 91/1/3
f 100/4/3 97/4/3 96/4/3
f 101/1/3 92/1/3 97/1/3
f 101/4/3 97/4/3 100/4/3
f 102/1/3 100/1/3 91/1/3
f 102/1/3 101/1/3 100/1/3
f 103/1/3 92/1/3 101/1/3
f 103/1/3 101/1/3 102/1/3
f 104/2/3 94/2/3 92/2/3
f 104/1/3 92/1/3 103/1/3
f 104/2/3 99/2/3 98/2/3
f 104/2/3 98/2/3 94/2/3
f 105/2/3 99/2/3 104/2/3
f 108/1/3 102/1/3 91/1/3
f 108/4/3 103/4/3 102/4/3
f 109/1/3 106/1/3 105/1/3
f 109/4/3 103/4/3 108/4/3
f 109/1/3 104/1/3 103/1/3
f 109/1/3 105/1/3 104/1/3
f 110/1/3 106/1/3 109/1/3
f 111/1/3 106/1/3 110/1/3
f 112/2/3 107/2/3 106/2/3
f 114/1/3 109/1/3 108/1/3
f 114/1/3 110/1/3 109/1/3
f 114/4/3 111/4/3 110/4/3
f 115/1/3 106/1/3 111/1/3
f 115/4/3 111/4/3 114/4/3
f 116/2/3 113/2/3 112/2/3
f 116/2/3 112/2/3 106/2/3
f 117/2/3 113/2/3 116/2/3
f 118/1/3 114/1/3 108/1/3
f 118/1/3 108/1/3 91/1/3
f 118/1/3 115/1/3 114/1/3
f 119/2/3 116/2/3 106/2/3
f 119/1/3 115/1/3 118/1/3
f 119/1/3 106/1/3 115/1/3
f 120/2/3 116/2/3 119/2/3
f 123/2/3 122/2/3 121/2/3
f 124/2/3 122/2/3 123/2/3
f 127/2/3 125/2/3 124/2/3
f 128/2/3 125/2/3 127/2/3
f 129/2/3 127/2/3 126/2/3
f 130/2/3 127/2/3 129/2/3
f 131/2/4 132/2/4 133/2/4
f 133/2/4 132/2/4 134/2/4
f 134/2/4 135/2/4 137/2/4
f 137/2/4 135/2/4 138/2/4
f 136/2/4 137/2/4 139/2/4
f 139/2/4 137/2/4 140/2/4
f 141/1/4 142/1/4 145/1/4
f 145/1/4 142/1/4 146/1/4
f 146/1/4 142/1/4 147/1/4
f 142/2/4 143/2/4 148/2/4
f 144/1/4 145/1/4 151/1/4
f 145/1/4 146/1/4 151/1/4
f 146/4/4 147/4/4 152/4/4
f 151/1/4 146/1/4 152/1/4
f 147/1/4 142/1/4 153/1/4
f 152/4/4 147/4/4 153/4/4
f 148/2/4 149/2/4 154/2/4
f 142/2/4 148/2/4 154/2/4
f 154/2/4 149/2/4 155/2/4
f 151/1/4 152/1/4 156/1/4
f 152/1/4 153/1/4 156/1/4
f 150/1/4 151/1/4 156/1/4
f 153/1/4 142/1/4 157/1/4
f 156/1/4 153/1/4 157/1/4
f 142/2/4 154/2/4 157/2/4
f 157/2/4 154/2/4 158/2/4
f 160/2/4 161/2/4 162/2/4
f 162/2/4 163/2/4 164/2/4
f 159/1/4 160/1/4 166/1/4
f 166/1/4 160/1/4 167/1/4
f 166/4/4 167/4/4 168/4/4
f 167/1/4 160/1/4 169/1/4
f 168/4/4 167/4/4 169/4/4
f 168/1/4 169/1/4 170/1/4
f 169/1/4 160/1/4 171/1/4
f 170/1/4 169/1/4 171/1/4
f 164/2/4 165/2/4 172/2/4
f 162/2/4 164/2/4 172/2/4
f 172/2/4 165/2/4 173/2/4
f 170/4/4 171/4/4 174/4/4
f 171/1/4 160/1/4 175/1/4
f 174/4/4 171/4/4 175/4/4
f 160/2/4 162/2/4 176/2/4
f 162/2/4 172/2/4 176/2/4
f 176/2/4 172/2/4 177/2/4
f 174/1/4 175/1/4 178/1/4
f 175/1/4 160/1/4 179/1/4
f 178/1/4 175/1/4 179/1/4
f 160/2/4 176/2/4 179/2/4
f 179/2/4 176/2/4 180/2/4
f 183/1/5 182/1/5 181/1/5
f 184/1/5 182/1/5 183/1/5
f 185/4/5 184/4/5 183/4/5
f 186/1/5 182/1/5 184/1/5
f 186/4/5 184/4/5 185/4/5
f 187/1/5 182/1/5 186/1/5
f 188/1/5 182/1/5 187/1/5
f 189/1/5 182/1/5 188/1/5
f 190/1/5 182/1/5 189/1/5
f 191/1/5 186/1/5 185/1/5
f 191/1/5 187/1/5 186/1/5
f 192/4/5 188/4/5 187/4/5
f 192/1/5 187/1/5 191/1/5
f 193/1/5 189/1/5 188/1/5
f 193/4/5 188/4/5 192/4/5
f 194/4/5 190/4/5 189/4/5
f 194/1/5 189/1/5 193/1/5
f 195/1/5 182/1/5 190/1/5
f 195/4/5 190/4/5 194/4/5
f 196/1/5 182/1/5 195/1/5
f 197/2/6 198/2/6 201/2/6
f 201/2/6 198/2/6 202/2/6
f 199/2/6 200/2/6 203/2/6
f 203/2/6 200/2/6 204/2/6
f 205/2/6 206/2/6 209/2/6
f 209/2/6 206/2/6 210/2/6
f 207/2/6 208/2/6 211/2/6
f 211/2/6 208/2/6 212/2/6
f 213/2/6 214/2/6 215/2/6
f 215/2/6 214/2/6 216/2/6
f 216/2/6 214/2/6 217/2/6
f 217/2/6 214/2/6 218/2/6
f 215/3/6 216/3/6 219/3/6
f 216/2/6 217/2/6 219/2/6
f 217/3/6 218/3/6 220/3/6
f 219/2/6 217/2/6 220/2/6
f 218/2/6 214/2/6 221/2/6
f 215/3/6 219/3/6 223/3/6
f 219/3/6 220/3/6 223/3/6
f 220/3/6 218/3/6 224/3/6
f 223/3/6 220/3/6 224/3/6
f 213/2/6 215/2/6 225/2/6
f 215/3/6 223/3/6 225/3/6
f 223/2/6 224/2/6 226/2/6
f 225/3/6 223/3/6 226/3/6
f 224/3/6 218/3/6 227/3/6
f 226/2/6 224/2/6 227/2/6
f 221/2/6 222/2/6 228/2/6
f 227/3/6 218/3/6 228/3/6
f 218/2/6 221/2/6 228/2/6
f 225/2/6 226/2/6 229/2/6
f 213/2/6 225/2/6 229/2/6
f 227/2/6 228/2/6 229/2/6
f 226/2/6 227/2/6 229/2/6
f 228/2/6 222/2/6 230/2/6
f 229/2/6 228/2/6 230/2/6
f 231/2/6 232/2/6 235/2/6
f 235/2/6 232/2/6 236/2/6
f 233/2/6 234/2/6 237/2/6
f 237/2/6 234/2/6 238/2/6
f 239/2/6 240/2/6 243/2/6
f 243/2/6 240/2/6 244/2/6
f 241/2/6 242/2/6 245/2/6
f 245/2/6 242/2/6 246/2/6
f 247/2/6 248/2/6 250/2/6
f 250/2/6 248/2/6 251/2/6
f 249/2/6 250/2/6 253/2/6
f 253/2/6 250/2/6 254/2/6
f 251/2/6 252/2/6 255/2/6
f 255/2/6 252/2/6 256/2/6
f 254/2/6 255/2/6 257/2/6
f 257/2/6 255/2/6 258/2/6
f 259/2/6 260/2/6 261/2/6
f 261/2/6 260/2/6 262/2/6
