# MagicaVoxel @ Ephtracy

# group
o 

# material
mtllib temple.mtl
usemtl palette

# normals
vn -1 0 0
vn 1 0 0
vn 0 0 1
vn 0 0 -1
vn 0 -1 0
vn 0 1 0

# texcoords
vt 0.146484 0.5
vt 0.927734 0.5
vt 0.994141 0.5

# verts
v -0.5 0 2
v -0.5 0 1.3
v -0.5 0.4 2
v -0.5 0.4 1.9
v -0.5 0.4 1.4
v -0.5 0.4 1.3
v -0.5 0.5 2
v -0.5 0.5 1.9
v -0.5 0.5 1.8
v -0.5 0.5 1.5
v -0.5 0.5 1.4
v -0.5 0.5 1.3
v -0.5 0.6 1.9
v -0.5 0.6 1.8
v -0.5 0.6 1.5
v -0.5 0.6 1.4
v -0.5 0.7 1.8
v -0.5 0.7 1.7
v -0.5 0.7 1.6
v -0.5 0.7 1.5
v -0.5 0.8 1.7
v -0.5 0.8 1.6
v 0.5 0.7 1.8
v 0.5 0.7 1.7
v 0.5 0.7 1.6
v 0.5 0.7 1.5
v 0.5 0.8 1.7
v 0.5 0.8 1.6
v 0.5 1 1.7
v 0.5 1 1.6
v 0.5 1.1 1.8
v 0.5 1.1 1.5
v 0.5 1.2 1.8
v 0.5 1.2 1.7
v 0.5 1.2 1.6
v 0.5 1.2 1.5
v 0.5 1.3 1.7
v 0.5 1.3 1.6
v 0.6 1.2 1.8
v 0.6 1.2 1.7
v 0.6 1.2 1.6
v 0.6 1.2 1.5
v 0.6 1.3 1.8
v 0.6 1.3 1.7
v 0.6 1.3 1.6
v 0.6 1.3 1.5
v 0.6 1.4 1.7
v 0.6 1.4 1.6
v 0.7 1.2 1.8
v 0.7 1.2 1.7
v 0.7 1.2 1.6
v 0.7 1.2 1.5
v 0.7 1.3 1.8
v 0.7 1.3 1.7
v 0.7 1.3 1.6
v 0.7 1.3 1.5
v 0.7 1.4 1.7
v 0.7 1.4 1.6
v 0.8 0 2
v 0.8 0 1.8
v 0.8 0 1.5
v 0.8 0 1.3
v 0.8 0.2 1.8
v 0.8 0.2 1.7
v 0.8 0.2 1.6
v 0.8 0.2 1.5
v 0.8 0.3 1.7
v 0.8 0.3 1.6
v 0.8 0.4 2
v 0.8 0.4 1.9
v 0.8 0.4 1.4
v 0.8 0.4 1.3
v 0.8 0.5 2
v 0.8 0.5 1.9
v 0.8 0.5 1.8
v 0.8 0.5 1.5
v 0.8 0.5 1.4
v 0.8 0.5 1.3
v 0.8 0.6 1.9
v 0.8 0.6 1.8
v 0.8 0.6 1.5
v 0.8 0.6 1.4
v 0.8 0.8 1.7
v 0.8 0.8 1.6
v 0.8 1 1.7
v 0.8 1 1.6
v 0.8 1.1 1.8
v 0.8 1.1 1.5
v 0.8 1.2 1.8
v 0.8 1.2 1.7
v 0.8 1.2 1.6
v 0.8 1.2 1.5
v 0.8 1.3 1.7
v 0.8 1.3 1.6
v -0.5 0 2
v -0.5 0.4 2
v -0.5 0.5 2
v -0.4 0.1 2
v -0.4 0.3 2
v -0.3 0.1 2
v -0.3 0.3 2
v -0.1 0.1 2
v -0.1 0.3 2
v 0 0.1 2
v 0 0.3 2
v 0.2 0.1 2
v 0.2 0.3 2
v 0.3 0.1 2
v 0.3 0.3 2
v 0.5 0.1 2
v 0.5 0.3 2
v 0.6 0.1 2
v 0.6 0.3 2
v 0.8 0 2
v 0.8 0.4 2
v 0.8 0.5 2
v -0.5 0.5 1.9
v -0.5 0.6 1.9
v 0.8 0.5 1.9
v 0.8 0.6 1.9
v -0.5 0.6 1.8
v -0.5 0.7 1.8
v 0.5 0.6 1.8
v 0.5 0.7 1.8
v 0.5 1.1 1.8
v 0.5 1.2 1.8
v 0.6 0.8 1.8
v 0.6 1 1.8
v 0.6 1.2 1.8
v 0.6 1.3 1.8
v 0.7 0.8 1.8
v 0.7 1 1.8
v 0.7 1.2 1.8
v 0.7 1.3 1.8
v 0.8 0.6 1.8
v 0.8 1.1 1.8
v 0.8 1.2 1.8
v -0.5 0.7 1.7
v -0.5 0.8 1.7
v 0.5 0.7 1.7
v 0.5 0.8 1.7
v 0.5 1.2 1.7
v 0.5 1.3 1.7
v 0.6 1.2 1.7
v 0.6 1.3 1.7
v 0.6 1.4 1.7
v 0.7 1.2 1.7
v 0.7 1.3 1.7
v 0.7 1.4 1.7
v 0.8 1.2 1.7
v 0.8 1.3 1.7
v -0.5 0.7 1.6
v -0.5 0.8 1.6
v 0.5 0.7 1.6
v 0.5 0.8 1.6
v 0.5 1.2 1.6
v 0.5 1.3 1.6
v 0.6 1.2 1.6
v 0.6 1.3 1.6
v 0.6 1.4 1.6
v 0.7 1.2 1.6
v 0.7 1.3 1.6
v 0.7 1.4 1.6
v 0.8 1.2 1.6
v 0.8 1.3 1.6
v -0.5 0.6 1.5
v -0.5 0.7 1.5
v 0.5 0.6 1.5
v 0.5 0.7 1.5
v 0.5 1.1 1.5
v 0.5 1.2 1.5
v 0.6 0.8 1.5
v 0.6 1 1.5
v 0.6 1.2 1.5
v 0.6 1.3 1.5
v 0.7 0.8 1.5
v 0.7 1 1.5
v 0.7 1.2 1.5
v 0.7 1.3 1.5
v 0.8 0.6 1.5
v 0.8 1.1 1.5
v 0.8 1.2 1.5
v -0.5 0.5 1.4
v -0.5 0.6 1.4
v 0.8 0.5 1.4
v 0.8 0.6 1.4
v -0.5 0 1.3
v -0.5 0.4 1.3
v -0.5 0.5 1.3
v -0.4 0.1 1.3
v -0.4 0.3 1.3
v -0.3 0.1 1.3
v -0.3 0.3 1.3
v -0.1 0.1 1.3
v -0.1 0.3 1.3
v 0 0.1 1.3
v 0 0.3 1.3
v 0.2 0.1 1.3
v 0.2 0.3 1.3
v 0.3 0.1 1.3
v 0.3 0.3 1.3
v 0.5 0.1 1.3
v 0.5 0.3 1.3
v 0.6 0.1 1.3
v 0.6 0.3 1.3
v 0.8 0 1.3
v 0.8 0.4 1.3
v 0.8 0.5 1.3
v -0.5 0 2
v 0.8 0 2
v 0.7 0 1.8
v 0.8 0 1.8
v 0.7 0 1.5
v 0.8 0 1.5
v -0.5 0 1.3
v 0.8 0 1.3
v -0.5 0.5 2
v 0.8 0.5 2
v -0.5 0.5 1.9
v 0.8 0.5 1.9
v -0.5 0.5 1.4
v 0.8 0.5 1.4
v -0.5 0.5 1.3
v 0.8 0.5 1.3
v -0.5 0.6 1.9
v 0.8 0.6 1.9
v -0.5 0.6 1.8
v 0.5 0.6 1.8
v 0.8 0.6 1.8
v -0.5 0.6 1.5
v 0.5 0.6 1.5
v 0.8 0.6 1.5
v -0.5 0.6 1.4
v 0.8 0.6 1.4
v -0.5 0.7 1.8
v 0.5 0.7 1.8
v -0.5 0.7 1.7
v 0.5 0.7 1.7
v -0.5 0.7 1.6
v 0.5 0.7 1.6
v -0.5 0.7 1.5
v 0.5 0.7 1.5
v -0.5 0.8 1.7
v 0.5 0.8 1.7
v -0.5 0.8 1.6
v 0.5 0.8 1.6
v 0.5 1.2 1.8
v 0.6 1.2 1.8
v 0.7 1.2 1.8
v 0.8 1.2 1.8
v 0.5 1.2 1.7
v 0.6 1.2 1.7
v 0.7 1.2 1.7
v 0.8 1.2 1.7
v 0.5 1.2 1.6
v 0.6 1.2 1.6
v 0.7 1.2 1.6
v 0.8 1.2 1.6
v 0.5 1.2 1.5
v 0.6 1.2 1.5
v 0.7 1.2 1.5
v 0.8 1.2 1.5
v 0.6 1.3 1.8
v 0.7 1.3 1.8
v 0.5 1.3 1.7
v 0.6 1.3 1.7
v 0.7 1.3 1.7
v 0.8 1.3 1.7
v 0.5 1.3 1.6
v 0.6 1.3 1.6
v 0.7 1.3 1.6
v 0.8 1.3 1.6
v 0.6 1.3 1.5
v 0.7 1.3 1.5
v 0.6 1.4 1.7
v 0.7 1.4 1.7
v 0.6 1.4 1.6
v 0.7 1.4 1.6

# faces
f 3/2/1 2/2/1 1/2/1
f 4/2/1 2/2/1 3/2/1
f 5/2/1 2/2/1 4/2/1
f 6/2/1 2/2/1 5/2/1
f 7/1/1 4/1/1 3/1/1
f 8/2/1 5/2/1 4/2/1
f 8/1/1 4/1/1 7/1/1
f 9/2/1 5/2/1 8/2/1
f 10/2/1 5/2/1 9/2/1
f 11/1/1 6/1/1 5/1/1
f 11/2/1 5/2/1 10/2/1
f 12/1/1 6/1/1 11/1/1
f 13/1/1 9/1/1 8/1/1
f 14/2/1 10/2/1 9/2/1
f 14/1/1 9/1/1 13/1/1
f 15/1/1 11/1/1 10/1/1
f 15/2/1 10/2/1 14/2/1
f 16/1/1 11/1/1 15/1/1
f 17/1/1 15/1/1 14/1/1
f 18/1/1 15/1/1 17/1/1
f 19/1/1 15/1/1 18/1/1
f 20/1/1 15/1/1 19/1/1
f 21/1/1 19/1/1 18/1/1
f 22/1/1 19/1/1 21/1/1
f 27/2/1 24/2/1 23/2/1
f 28/2/1 26/2/1 25/2/1
f 29/2/1 27/2/1 23/2/1
f 29/3/1 28/3/1 27/3/1
f 30/2/1 26/2/1 28/2/1
f 30/3/1 28/3/1 29/3/1
f 31/2/1 29/2/1 23/2/1
f 31/2/1 30/2/1 29/2/1
f 32/2/1 26/2/1 30/2/1
f 32/2/1 30/2/1 31/2/1
f 33/1/1 32/1/1 31/1/1
f 34/1/1 32/1/1 33/1/1
f 35/1/1 32/1/1 34/1/1
f 36/1/1 32/1/1 35/1/1
f 37/1/1 35/1/1 34/1/1
f 38/1/1 35/1/1 37/1/1
f 43/1/1 40/1/1 39/1/1
f 44/1/1 40/1/1 43/1/1
f 45/1/1 42/1/1 41/1/1
f 46/1/1 42/1/1 45/1/1
f 47/1/1 45/1/1 44/1/1
f 48/1/1 45/1/1 47/1/1
f 49/1/2 50/1/2 53/1/2
f 53/1/2 50/1/2 54/1/2
f 51/1/2 52/1/2 55/1/2
f 55/1/2 52/1/2 56/1/2
f 54/1/2 55/1/2 57/1/2
f 57/1/2 55/1/2 58/1/2
f 59/2/2 60/2/2 63/2/2
f 60/3/2 61/3/2 63/3/2
f 63/3/2 61/3/2 64/3/2
f 64/3/2 61/3/2 65/3/2
f 61/2/2 62/2/2 66/2/2
f 65/3/2 61/3/2 66/3/2
f 64/3/2 65/3/2 67/3/2
f 63/2/2 64/2/2 67/2/2
f 65/2/2 66/2/2 68/2/2
f 67/3/2 65/3/2 68/3/2
f 59/2/2 63/2/2 69/2/2
f 63/2/2 67/2/2 69/2/2
f 67/2/2 68/2/2 69/2/2
f 69/2/2 68/2/2 70/2/2
f 66/2/2 62/2/2 71/2/2
f 70/2/2 68/2/2 71/2/2
f 68/2/2 66/2/2 71/2/2
f 71/2/2 62/2/2 72/2/2
f 69/1/2 70/1/2 73/1/2
f 70/2/2 71/2/2 74/2/2
f 73/1/2 70/1/2 74/1/2
f 74/2/2 71/2/2 75/2/2
f 75/2/2 71/2/2 76/2/2
f 71/1/2 72/1/2 77/1/2
f 76/2/2 71/2/2 77/2/2
f 77/1/2 72/1/2 78/1/2
f 74/1/2 75/1/2 79/1/2
f 75/2/2 76/2/2 80/2/2
f 79/1/2 75/1/2 80/1/2
f 76/1/2 77/1/2 81/1/2
f 80/2/2 76/2/2 81/2/2
f 81/1/2 77/1/2 82/1/2
f 80/2/2 81/2/2 83/2/2
f 83/2/2 81/2/2 84/2/2
f 80/2/2 83/2/2 85/2/2
f 83/3/2 84/3/2 85/3/2
f 84/2/2 81/2/2 86/2/2
f 85/3/2 84/3/2 86/3/2
f 80/2/2 85/2/2 87/2/2
f 85/2/2 86/2/2 87/2/2
f 86/2/2 81/2/2 88/2/2
f 87/2/2 86/2/2 88/2/2
f 87/1/2 88/1/2 89/1/2
f 89/1/2 88/1/2 90/1/2
f 90/1/2 88/1/2 91/1/2
f 91/1/2 88/1/2 92/1/2
f 90/1/2 91/1/2 93/1/2
f 93/1/2 91/1/2 94/1/2
f 98/2/3 96/2/3 95/2/3
f 99/2/3 96/2/3 98/2/3
f 100/2/3 98/2/3 95/2/3
f 100/3/3 99/3/3 98/3/3
f 101/2/3 96/2/3 99/2/3
f 101/3/3 99/3/3 100/3/3
f 102/2/3 100/2/3 95/2/3
f 102/2/3 101/2/3 100/2/3
f 103/2/3 96/2/3 101/2/3
f 103/2/3 101/2/3 102/2/3
f 104/2/3 102/2/3 95/2/3
f 104/3/3 103/3/3 102/3/3
f 105/2/3 96/2/3 103/2/3
f 105/3/3 103/3/3 104/3/3
f 106/2/3 104/2/3 95/2/3
f 106/2/3 105/2/3 104/2/3
f 107/2/3 96/2/3 105/2/3
f 107/2/3 105/2/3 106/2/3
f 108/2/3 106/2/3 95/2/3
f 108/3/3 107/3/3 106/3/3
f 109/2/3 96/2/3 107/2/3
f 109/3/3 107/3/3 108/3/3
f 110/2/3 108/2/3 95/2/3
f 110/2/3 109/2/3 108/2/3
f 111/2/3 96/2/3 109/2/3
f 111/2/3 109/2/3 110/2/3
f 112/2/3 110/2/3 95/2/3
f 112/3/3 111/3/3 110/3/3
f 113/2/3 96/2/3 111/2/3
f 113/3/3 111/3/3 112/3/3
f 114/2/3 112/2/3 95/2/3
f 114/2/3 113/2/3 112/2/3
f 115/1/3 97/1/3 96/1/3
f 115/2/3 113/2/3 114/2/3
f 115/2/3 96/2/3 113/2/3
f 116/1/3 97/1/3 115/1/3
f 119/1/3 118/1/3 117/1/3
f 120/1/3 118/1/3 119/1/3
f 123/1/3 122/1/3 121/1/3
f 124/1/3 122/1/3 123/1/3
f 127/2/3 124/2/3 123/2/3
f 127/2/3 125/2/3 124/2/3
f 128/2/3 125/2/3 127/2/3
f 129/1/3 126/1/3 125/1/3
f 131/2/3 127/2/3 123/2/3
f 131/3/3 128/3/3 127/3/3
f 132/2/3 125/2/3 128/2/3
f 132/3/3 128/3/3 131/3/3
f 133/1/3 130/1/3 129/1/3
f 133/1/3 129/1/3 125/1/3
f 134/1/3 130/1/3 133/1/3
f 135/2/3 131/2/3 123/2/3
f 135/2/3 132/2/3 131/2/3
f 136/2/3 125/2/3 132/2/3
f 136/2/3 132/2/3 135/2/3
f 136/1/3 133/1/3 125/1/3
f 137/1/3 133/1/3 136/1/3
f 140/1/3 139/1/3 138/1/3
f 141/1/3 139/1/3 140/1/3
f 144/1/3 143/1/3 142/1/3
f 145/1/3 143/1/3 144/1/3
f 148/1/3 146/1/3 145/1/3
f 149/1/3 146/1/3 148/1/3
f 150/1/3 148/1/3 147/1/3
f 151/1/3 148/1/3 150/1/3
f 152/1/4 153/1/4 154/1/4
f 154/1/4 153/1/4 155/1/4
f 156/1/4 157/1/4 158/1/4
f 158/1/4 157/1/4 159/1/4
f 159/1/4 160/1/4 162/1/4
f 162/1/4 160/1/4 163/1/4
f 161/1/4 162/1/4 164/1/4
f 164/1/4 162/1/4 165/1/4
f 166/1/4 167/1/4 168/1/4
f 168/1/4 167/1/4 169/1/4
f 168/2/4 169/2/4 172/2/4
f 169/2/4 170/2/4 172/2/4
f 172/2/4 170/2/4 173/2/4
f 170/1/4 171/1/4 174/1/4
f 168/2/4 172/2/4 176/2/4
f 172/3/4 173/3/4 176/3/4
f 173/2/4 170/2/4 177/2/4
f 176/3/4 173/3/4 177/3/4
f 174/1/4 175/1/4 178/1/4
f 170/1/4 174/1/4 178/1/4
f 178/1/4 175/1/4 179/1/4
f 168/2/4 176/2/4 180/2/4
f 176/2/4 177/2/4 180/2/4
f 177/2/4 170/2/4 181/2/4
f 180/2/4 177/2/4 181/2/4
f 170/1/4 178/1/4 181/1/4
f 181/1/4 178/1/4 182/1/4
f 183/1/4 184/1/4 185/1/4
f 185/1/4 184/1/4 186/1/4
f 187/2/4 188/2/4 190/2/4
f 190/2/4 188/2/4 191/2/4
f 187/2/4 190/2/4 192/2/4
f 190/3/4 191/3/4 192/3/4
f 191/2/4 188/2/4 193/2/4
f 192/3/4 191/3/4 193/3/4
f 187/2/4 192/2/4 194/2/4
f 192/2/4 193/2/4 194/2/4
f 193/2/4 188/2/4 195/2/4
f 194/2/4 193/2/4 195/2/4
f 187/2/4 194/2/4 196/2/4
f 194/3/4 195/3/4 196/3/4
f 195/2/4 188/2/4 197/2/4
f 196/3/4 195/3/4 197/3/4
f 187/2/4 196/2/4 198/2/4
f 196/2/4 197/2/4 198/2/4
f 197/2/4 188/2/4 199/2/4
f 198/2/4 197/2/4 199/2/4
f 187/2/4 198/2/4 200/2/4
f 198/3/4 199/3/4 200/3/4
f 199/2/4 188/2/4 201/2/4
f 200/3/4 199/3/4 201/3/4
f 187/2/4 200/2/4 202/2/4
f 200/2/4 201/2/4 202/2/4
f 201/2/4 188/2/4 203/2/4
f 202/2/4 201/2/4 203/2/4
f 187/2/4 202/2/4 204/2/4
f 202/3/4 203/3/4 204/3/4
f 203/2/4 188/2/4 205/2/4
f 204/3/4 203/3/4 205/3/4
f 187/2/4 204/2/4 206/2/4
f 204/2/4 205/2/4 206/2/4
f 188/1/4 189/1/4 207/1/4
f 206/2/4 205/2/4 207/2/4
f 205/2/4 188/2/4 207/2/4
f 207/1/4 189/1/4 208/1/4
f 211/2/5 210/2/5 209/2/5
f 212/2/5 210/2/5 211/2/5
f 213/2/5 211/2/5 209/2/5
f 213/3/5 212/3/5 211/3/5
f 214/3/5 212/3/5 213/3/5
f 215/2/5 213/2/5 209/2/5
f 215/2/5 214/2/5 213/2/5
f 216/2/5 214/2/5 215/2/5
f 217/1/6 218/1/6 219/1/6
f 219/1/6 218/1/6 220/1/6
f 221/1/6 222/1/6 223/1/6
f 223/1/6 222/1/6 224/1/6
f 225/1/6 226/1/6 227/1/6
f 227/1/6 226/1/6 228/1/6
f 228/1/6 226/1/6 229/1/6
f 230/1/6 231/1/6 233/1/6
f 231/1/6 232/1/6 233/1/6
f 233/1/6 232/1/6 234/1/6
f 235/1/6 236/1/6 237/1/6
f 237/1/6 236/1/6 238/1/6
f 239/1/6 240/1/6 241/1/6
f 241/1/6 240/1/6 242/1/6
f 243/1/6 244/1/6 245/1/6
f 245/1/6 244/1/6 246/1/6
f 247/1/6 248/1/6 251/1/6
f 251/1/6 248/1/6 252/1/6
f 249/1/6 250/1/6 253/1/6
f 253/1/6 250/1/6 254/1/6
f 255/1/6 256/1/6 259/1/6
f 259/1/6 256/1/6 260/1/6
f 257/1/6 258/1/6 261/1/6
f 261/1/6 258/1/6 262/1/6
f 263/1/6 264/1/6 266/1/6
f 266/1/6 264/1/6 267/1/6
f 265/1/6 266/1/6 269/1/6
f 269/1/6 266/1/6 270/1/6
f 267/1/6 268/1/6 271/1/6
f 271/1/6 268/1/6 272/1/6
f 270/1/6 271/1/6 273/1/6
f 273/1/6 271/1/6 274/1/6
f 275/1/6 276/1/6 277/1/6
f 277/1/6 276/1/6 278/1/6
