# MagicaVoxel @ Ephtracy

# group
o 

# material
mtllib house_4.mtl
usemtl palette

# normals
vn -1 0 0
vn 1 0 0
vn 0 0 1
vn 0 0 -1
vn 0 -1 0
vn 0 1 0

# texcoords
vt 0.146484 0.5
vt 0.306641 0.5
vt 0.994141 0.5

# verts
v -0.5 0 0.5
v -0.5 0 -0.1
v -0.5 0.1 0.2
v -0.5 0.1 0
v -0.5 0.3 0.2
v -0.5 0.3 0
v -0.5 0.4 0.5
v -0.5 0.4 -0.1
v -0.5 0.5 0.5
v -0.5 0.5 0.4
v -0.5 0.5 0
v -0.5 0.5 -0.1
v -0.5 0.6 0.4
v -0.5 0.6 0.3
v -0.5 0.6 0.1
v -0.5 0.6 0
v -0.5 0.7 0.3
v -0.5 0.7 0.1
v -0.1 0 -0.1
v -0.1 0 -0.2
v -0.1 0 -0.4
v -0.1 0 -0.5
v -0.1 0.3 -0.2
v -0.1 0.3 -0.4
v -0.1 0.4 -0.1
v -0.1 0.4 -0.5
v -0.1 0.5 -0.1
v -0.1 0.5 -0.5
v 0 0.5 0
v 0 0.5 -0.5
v 0 0.6 0
v 0 0.6 -0.5
v 0.1 0.6 0.1
v 0.1 0.6 -0.5
v 0.1 0.7 0.1
v 0.1 0.7 -0.5
v 0.3 0.6 0.3
v 0.3 0.6 -0.5
v 0.3 0.7 0.3
v 0.3 0.7 -0.5
v 0.4 0.5 0.4
v 0.4 0.5 -0.5
v 0.4 0.6 0.4
v 0.4 0.6 -0.5
v 0.5 0 0.5
v 0.5 0 -0.5
v 0.5 0.1 0.3
v 0.5 0.1 0.1
v 0.5 0.1 -0.2
v 0.5 0.1 -0.4
v 0.5 0.3 0.3
v 0.5 0.3 0.1
v 0.5 0.3 -0.2
v 0.5 0.3 -0.4
v 0.5 0.4 0.5
v 0.5 0.4 -0.5
v 0.5 0.5 0.5
v 0.5 0.5 -0.5
v -0.5 0 0.5
v -0.5 0.4 0.5
v -0.5 0.5 0.5
v -0.3 0 0.5
v -0.3 0.3 0.5
v -0.1 0 0.5
v -0.1 0.3 0.5
v 0 0.1 0.5
v 0 0.3 0.5
v 0.2 0.1 0.5
v 0.2 0.3 0.5
v 0.5 0 0.5
v 0.5 0.4 0.5
v 0.5 0.5 0.5
v -0.5 0.5 0.4
v -0.5 0.6 0.4
v 0.4 0.5 0.4
v 0.4 0.6 0.4
v -0.5 0.6 0.3
v -0.5 0.7 0.3
v 0.3 0.6 0.3
v 0.3 0.7 0.3
v -0.5 0.6 0.1
v -0.5 0.7 0.1
v 0.1 0.6 0.1
v 0.1 0.7 0.1
v -0.5 0.5 0
v -0.5 0.6 0
v 0 0.5 0
v 0 0.6 0
v -0.5 0 -0.1
v -0.5 0.4 -0.1
v -0.5 0.5 -0.1
v -0.4 0.1 -0.1
v -0.4 0.3 -0.1
v -0.2 0.1 -0.1
v -0.2 0.3 -0.1
v -0.1 0 -0.1
v -0.1 0.4 -0.1
v -0.1 0.5 -0.1
v -0.1 0 -0.5
v -0.1 0.4 -0.5
v -0.1 0.5 -0.5
v 0 0.5 -0.5
v 0 0.6 -0.5
v 0.1 0.6 -0.5
v 0.1 0.7 -0.5
v 0.2 0.1 -0.5
v 0.2 0.3 -0.5
v 0.3 0.6 -0.5
v 0.3 0.7 -0.5
v 0.4 0.1 -0.5
v 0.4 0.3 -0.5
v 0.4 0.5 -0.5
v 0.4 0.6 -0.5
v 0.5 0 -0.5
v 0.5 0.4 -0.5
v 0.5 0.5 -0.5
v -0.5 0 0.5
v -0.3 0 0.5
v -0.1 0 0.5
v 0.5 0 0.5
v -0.3 0 0.4
v -0.1 0 0.4
v -0.5 0 -0.1
v -0.1 0 -0.1
v -0.1 0 -0.2
v 0 0 -0.2
v -0.1 0 -0.4
v 0 0 -0.4
v -0.1 0 -0.5
v 0.5 0 -0.5
v -0.5 0.5 0.5
v 0.5 0.5 0.5
v -0.5 0.5 0.4
v 0.4 0.5 0.4
v -0.5 0.5 0
v 0 0.5 0
v -0.5 0.5 -0.1
v -0.1 0.5 -0.1
v -0.1 0.5 -0.5
v 0 0.5 -0.5
v 0.4 0.5 -0.5
v 0.5 0.5 -0.5
v -0.5 0.6 0.4
v 0.4 0.6 0.4
v -0.5 0.6 0.3
v 0.3 0.6 0.3
v -0.5 0.6 0.1
v 0.1 0.6 0.1
v -0.5 0.6 0
v 0 0.6 0
v 0 0.6 -0.5
v 0.1 0.6 -0.5
v 0.3 0.6 -0.5
v 0.4 0.6 -0.5
v -0.5 0.7 0.3
v 0.3 0.7 0.3
v -0.5 0.7 0.1
v 0.1 0.7 0.1
v 0.1 0.7 -0.5
v 0.3 0.7 -0.5

# faces
f 3/2/1 2/2/1 1/2/1
f 4/2/1 2/2/1 3/2/1
f 5/2/1 3/2/1 1/2/1
f 5/3/1 4/3/1 3/3/1
f 6/2/1 2/2/1 4/2/1
f 6/3/1 4/3/1 5/3/1
f 7/2/1 5/2/1 1/2/1
f 7/2/1 6/2/1 5/2/1
f 8/2/1 2/2/1 6/2/1
f 8/2/1 6/2/1 7/2/1
f 9/1/1 8/1/1 7/1/1
f 10/1/1 8/1/1 9/1/1
f 11/1/1 8/1/1 10/1/1
f 12/1/1 8/1/1 11/1/1
f 13/1/1 11/1/1 10/1/1
f 14/1/1 11/1/1 13/1/1
f 15/1/1 11/1/1 14/1/1
f 16/1/1 11/1/1 15/1/1
f 17/1/1 15/1/1 14/1/1
f 18/1/1 15/1/1 17/1/1
f 23/2/1 20/2/1 19/2/1
f 23/3/1 21/3/1 20/3/1
f 24/2/1 22/2/1 21/2/1
f 24/3/1 21/3/1 23/3/1
f 25/2/1 23/2/1 19/2/1
f 25/2/1 24/2/1 23/2/1
f 26/2/1 22/2/1 24/2/1
f 26/2/1 24/2/1 25/2/1
f 27/1/1 26/1/1 25/1/1
f 28/1/1 26/1/1 27/1/1
f 31/1/1 30/1/1 29/1/1
f 32/1/1 30/1/1 31/1/1
f 35/1/1 34/1/1 33/1/1
f 36/1/1 34/1/1 35/1/1
f 37/1/2 38/1/2 39/1/2
f 39/1/2 38/1/2 40/1/2
f 41/1/2 42/1/2 43/1/2
f 43/1/2 42/1/2 44/1/2
f 45/2/2 46/2/2 47/2/2
f 47/2/2 46/2/2 48/2/2
f 48/2/2 46/2/2 49/2/2
f 49/2/2 46/2/2 50/2/2
f 45/2/2 47/2/2 51/2/2
f 47/3/2 48/3/2 51/3/2
f 48/2/2 49/2/2 52/2/2
f 51/3/2 48/3/2 52/3/2
f 49/3/2 50/3/2 53/3/2
f 52/2/2 49/2/2 53/2/2
f 50/2/2 46/2/2 54/2/2
f 53/3/2 50/3/2 54/3/2
f 52/2/2 53/2/2 55/2/2
f 51/2/2 52/2/2 55/2/2
f 53/2/2 54/2/2 55/2/2
f 45/2/2 51/2/2 55/2/2
f 54/2/2 46/2/2 56/2/2
f 55/2/2 54/2/2 56/2/2
f 55/1/2 56/1/2 57/1/2
f 57/1/2 56/1/2 58/1/2
f 62/2/3 60/2/3 59/2/3
f 63/2/3 60/2/3 62/2/3
f 64/3/3 63/3/3 62/3/3
f 65/2/3 60/2/3 63/2/3
f 65/3/3 63/3/3 64/3/3
f 66/2/3 65/2/3 64/2/3
f 67/2/3 60/2/3 65/2/3
f 67/2/3 65/2/3 66/2/3
f 68/2/3 66/2/3 64/2/3
f 68/3/3 67/3/3 66/3/3
f 69/2/3 60/2/3 67/2/3
f 69/3/3 67/3/3 68/3/3
f 70/2/3 68/2/3 64/2/3
f 70/2/3 69/2/3 68/2/3
f 71/1/3 61/1/3 60/1/3
f 71/2/3 69/2/3 70/2/3
f 71/2/3 60/2/3 69/2/3
f 72/1/3 61/1/3 71/1/3
f 75/1/3 74/1/3 73/1/3
f 76/1/3 74/1/3 75/1/3
f 79/1/3 78/1/3 77/1/3
f 80/1/3 78/1/3 79/1/3
f 81/1/4 82/1/4 83/1/4
f 83/1/4 82/1/4 84/1/4
f 85/1/4 86/1/4 87/1/4
f 87/1/4 86/1/4 88/1/4
f 89/2/4 90/2/4 92/2/4
f 92/2/4 90/2/4 93/2/4
f 89/2/4 92/2/4 94/2/4
f 92/3/4 93/3/4 94/3/4
f 93/2/4 90/2/4 95/2/4
f 94/3/4 93/3/4 95/3/4
f 89/2/4 94/2/4 96/2/4
f 94/2/4 95/2/4 96/2/4
f 90/1/4 91/1/4 97/1/4
f 96/2/4 95/2/4 97/2/4
f 95/2/4 90/2/4 97/2/4
f 97/1/4 91/1/4 98/1/4
f 100/1/4 101/1/4 102/1/4
f 102/1/4 103/1/4 104/1/4
f 99/2/4 100/2/4 106/2/4
f 106/2/4 100/2/4 107/2/4
f 104/1/4 105/1/4 108/1/4
f 102/1/4 104/1/4 108/1/4
f 108/1/4 105/1/4 109/1/4
f 106/3/4 107/3/4 110/3/4
f 99/2/4 106/2/4 110/2/4
f 107/2/4 100/2/4 111/2/4
f 110/3/4 107/3/4 111/3/4
f 100/1/4 102/1/4 112/1/4
f 102/1/4 108/1/4 112/1/4
f 112/1/4 108/1/4 113/1/4
f 99/2/4 110/2/4 114/2/4
f 110/2/4 111/2/4 114/2/4
f 111/2/4 100/2/4 115/2/4
f 114/2/4 111/2/4 115/2/4
f 100/1/4 112/1/4 115/1/4
f 115/1/4 112/1/4 116/1/4
f 121/2/5 118/2/5 117/2/5
f 121/3/5 119/3/5 118/3/5
f 122/2/5 120/2/5 119/2/5
f 122/3/5 119/3/5 121/3/5
f 123/2/5 121/2/5 117/2/5
f 123/2/5 122/2/5 121/2/5
f 124/2/5 120/2/5 122/2/5
f 124/2/5 122/2/5 123/2/5
f 125/2/5 120/2/5 124/2/5
f 126/2/5 120/2/5 125/2/5
f 127/3/5 126/3/5 125/3/5
f 128/2/5 120/2/5 126/2/5
f 128/3/5 126/3/5 127/3/5
f 129/2/5 128/2/5 127/2/5
f 130/2/5 120/2/5 128/2/5
f 130/2/5 128/2/5 129/2/5
f 131/1/6 132/1/6 133/1/6
f 133/1/6 132/1/6 134/1/6
f 135/1/6 136/1/6 137/1/6
f 137/1/6 136/1/6 138/1/6
f 138/1/6 136/1/6 139/1/6
f 139/1/6 136/1/6 140/1/6
f 134/1/6 132/1/6 141/1/6
f 141/1/6 132/1/6 142/1/6
f 143/1/6 144/1/6 145/1/6
f 145/1/6 144/1/6 146/1/6
f 147/1/6 148/1/6 149/1/6
f 149/1/6 148/1/6 150/1/6
f 150/1/6 148/1/6 151/1/6
f 151/1/6 148/1/6 152/1/6
f 146/1/6 144/1/6 153/1/6
f 153/1/6 144/1/6 154/1/6
f 155/1/6 156/1/6 157/1/6
f 157/1/6 156/1/6 158/1/6
f 158/1/6 156/1/6 159/1/6
f 159/1/6 156/1/6 160/1/6
