# MagicaVoxel @ Ephtracy

# group
o 

# material
mtllib house_3.mtl
usemtl palette

# normals
vn -1 0 0
vn 1 0 0
vn 0 0 1
vn 0 0 -1
vn 0 -1 0
vn 0 1 0

# texcoords
vt 0.716797 0.5
vt 0.849609 0.5
vt 0.994141 0.5

# verts
v -0.3 0 0.4
v -0.3 0 0
v -0.3 0 -0.2
v -0.3 0 -0.4
v -0.3 0.1 0.3
v -0.3 0.1 0.1
v -0.3 0.3 0.3
v -0.3 0.3 0.1
v -0.3 0.3 0
v -0.3 0.3 -0.2
v -0.3 0.4 0.4
v -0.3 0.4 -0.4
v -0.3 0.5 0.4
v -0.3 0.5 -0.4
v -0.2 0.5 0.4
v -0.2 0.5 -0.4
v -0.2 0.6 0.4
v -0.2 0.6 -0.4
v -0.1 0.6 0.4
v -0.1 0.6 -0.4
v -0.1 0.7 0.4
v -0.1 0.7 -0.4
v 0.1 0.6 0.4
v 0.1 0.6 -0.4
v 0.1 0.7 0.4
v 0.1 0.7 -0.4
v 0.2 0.5 0.4
v 0.2 0.5 -0.4
v 0.2 0.6 0.4
v 0.2 0.6 -0.4
v 0.3 0 0.4
v 0.3 0 -0.4
v 0.3 0.1 0.2
v 0.3 0.1 0
v 0.3 0.1 -0.1
v 0.3 0.1 -0.3
v 0.3 0.3 0.2
v 0.3 0.3 0
v 0.3 0.3 -0.1
v 0.3 0.3 -0.3
v 0.3 0.4 0.4
v 0.3 0.4 -0.4
v 0.3 0.5 0.4
v 0.3 0.5 -0.4
v -0.3 0 0.4
v -0.3 0.4 0.4
v -0.3 0.5 0.4
v -0.2 0.5 0.4
v -0.2 0.6 0.4
v -0.1 0.1 0.4
v -0.1 0.3 0.4
v -0.1 0.6 0.4
v -0.1 0.7 0.4
v 0.1 0.1 0.4
v 0.1 0.3 0.4
v 0.1 0.6 0.4
v 0.1 0.7 0.4
v 0.2 0.5 0.4
v 0.2 0.6 0.4
v 0.3 0 0.4
v 0.3 0.4 0.4
v 0.3 0.5 0.4
v -0.3 0 -0.4
v -0.3 0.4 -0.4
v -0.3 0.5 -0.4
v -0.2 0.5 -0.4
v -0.2 0.6 -0.4
v -0.1 0.6 -0.4
v -0.1 0.7 -0.4
v 0 0.1 -0.4
v 0 0.3 -0.4
v 0.1 0.6 -0.4
v 0.1 0.7 -0.4
v 0.2 0.1 -0.4
v 0.2 0.3 -0.4
v 0.2 0.5 -0.4
v 0.2 0.6 -0.4
v 0.3 0 -0.4
v 0.3 0.4 -0.4
v 0.3 0.5 -0.4
v -0.3 0 0.4
v 0.3 0 0.4
v -0.3 0 0
v -0.2 0 0
v -0.3 0 -0.2
v -0.2 0 -0.2
v -0.3 0 -0.4
v 0.3 0 -0.4
v -0.3 0.5 0.4
v -0.2 0.5 0.4
v 0.2 0.5 0.4
v 0.3 0.5 0.4
v -0.3 0.5 -0.4
v -0.2 0.5 -0.4
v 0.2 0.5 -0.4
v 0.3 0.5 -0.4
v -0.2 0.6 0.4
v -0.1 0.6 0.4
v 0.1 0.6 0.4
v 0.2 0.6 0.4
v -0.2 0.6 -0.4
v -0.1 0.6 -0.4
v 0.1 0.6 -0.4
v 0.2 0.6 -0.4
v -0.1 0.7 0.4
v 0.1 0.7 0.4
v -0.1 0.7 -0.4
v 0.1 0.7 -0.4

# faces
f 5/1/1 2/1/1 1/1/1
f 6/1/1 2/1/1 5/1/1
f 7/1/1 5/1/1 1/1/1
f 7/3/1 6/3/1 5/3/1
f 8/1/1 2/1/1 6/1/1
f 8/3/1 6/3/1 7/3/1
f 9/3/1 3/3/1 2/3/1
f 9/1/1 2/1/1 8/1/1
f 10/1/1 4/1/1 3/1/1
f 10/3/1 3/3/1 9/3/1
f 11/1/1 9/1/1 8/1/1
f 11/1/1 8/1/1 7/1/1
f 11/1/1 10/1/1 9/1/1
f 11/1/1 7/1/1 1/1/1
f 12/1/1 4/1/1 10/1/1
f 12/1/1 10/1/1 11/1/1
f 13/2/1 12/2/1 11/2/1
f 14/2/1 12/2/1 13/2/1
f 17/2/1 16/2/1 15/2/1
f 18/2/1 16/2/1 17/2/1
f 21/2/1 20/2/1 19/2/1
f 22/2/1 20/2/1 21/2/1
f 23/2/2 24/2/2 25/2/2
f 25/2/2 24/2/2 26/2/2
f 27/2/2 28/2/2 29/2/2
f 29/2/2 28/2/2 30/2/2
f 31/1/2 32/1/2 33/1/2
f 33/1/2 32/1/2 34/1/2
f 34/1/2 32/1/2 35/1/2
f 35/1/2 32/1/2 36/1/2
f 31/1/2 33/1/2 37/1/2
f 33/3/2 34/3/2 37/3/2
f 34/1/2 35/1/2 38/1/2
f 37/3/2 34/3/2 38/3/2
f 35/3/2 36/3/2 39/3/2
f 38/1/2 35/1/2 39/1/2
f 36/1/2 32/1/2 40/1/2
f 39/3/2 36/3/2 40/3/2
f 38/1/2 39/1/2 41/1/2
f 37/1/2 38/1/2 41/1/2
f 39/1/2 40/1/2 41/1/2
f 31/1/2 37/1/2 41/1/2
f 40/1/2 32/1/2 42/1/2
f 41/1/2 40/1/2 42/1/2
f 41/2/2 42/2/2 43/2/2
f 43/2/2 42/2/2 44/2/2
f 48/2/3 47/2/3 46/2/3
f 50/1/3 46/1/3 45/1/3
f 51/1/3 46/1/3 50/1/3
f 52/2/3 49/2/3 48/2/3
f 54/1/3 50/1/3 45/1/3
f 54/3/3 51/3/3 50/3/3
f 55/1/3 46/1/3 51/1/3
f 55/3/3 51/3/3 54/3/3
f 56/2/3 53/2/3 52/2/3
f 56/2/3 52/2/3 48/2/3
f 57/2/3 53/2/3 56/2/3
f 58/2/3 48/2/3 46/2/3
f 58/2/3 56/2/3 48/2/3
f 59/2/3 56/2/3 58/2/3
f 60/1/3 54/1/3 45/1/3
f 60/1/3 55/1/3 54/1/3
f 61/1/3 46/1/3 55/1/3
f 61/1/3 55/1/3 60/1/3
f 61/2/3 58/2/3 46/2/3
f 62/2/3 58/2/3 61/2/3
f 64/2/4 65/2/4 66/2/4
f 66/2/4 67/2/4 68/2/4
f 63/1/4 64/1/4 70/1/4
f 70/1/4 64/1/4 71/1/4
f 68/2/4 69/2/4 72/2/4
f 66/2/4 68/2/4 72/2/4
f 72/2/4 69/2/4 73/2/4
f 70/3/4 71/3/4 74/3/4
f 63/1/4 70/1/4 74/1/4
f 71/1/4 64/1/4 75/1/4
f 74/3/4 71/3/4 75/3/4
f 64/2/4 66/2/4 76/2/4
f 66/2/4 72/2/4 76/2/4
f 76/2/4 72/2/4 77/2/4
f 63/1/4 74/1/4 78/1/4
f 74/1/4 75/1/4 78/1/4
f 75/1/4 64/1/4 79/1/4
f 78/1/4 75/1/4 79/1/4
f 64/2/4 76/2/4 79/2/4
f 79/2/4 76/2/4 80/2/4
f 83/1/5 82/1/5 81/1/5
f 84/1/5 82/1/5 83/1/5
f 85/3/5 84/3/5 83/3/5
f 86/1/5 82/1/5 84/1/5
f 86/3/5 84/3/5 85/3/5
f 87/1/5 86/1/5 85/1/5
f 88/1/5 82/1/5 86/1/5
f 88/1/5 86/1/5 87/1/5
f 89/2/6 90/2/6 93/2/6
f 93/2/6 90/2/6 94/2/6
f 91/2/6 92/2/6 95/2/6
f 95/2/6 92/2/6 96/2/6
f 97/2/6 98/2/6 101/2/6
f 101/2/6 98/2/6 102/2/6
f 99/2/6 100/2/6 103/2/6
f 103/2/6 100/2/6 104/2/6
f 105/2/6 106/2/6 107/2/6
f 107/2/6 106/2/6 108/2/6
